{
	"asset":{
		"generator":"Khronos glTF Blender I/O v4.4.56",
		"version":"2.0"
	},
	"extensionsUsed":[
		"EXT_texture_webp"
	],
	"extensionsRequired":[
		"EXT_texture_webp"
	],
	"scene":0,
	"scenes":[
		{
			"name":"Scene",
			"nodes":[
				0
			]
		}
	],
	"nodes":[
		{
			"mesh":0,
			"name":"Adorn India Damian Sofa _LARGE",
			"rotation":[
				0.5,
				0.5,
				-0.5,
				0.5000000596046448
			],
			"scale":[
				0.017667973414063454,
				0.017667973414063454,
				0.017667973414063454
			],
			"translation":[
				2.334115982055664,
				0.47155606746673584,
				0.5052108764648438
			]
		}
	],
	"materials":[
		{
			"doubleSided":true,
			"name":"FURNITURE_083_MAT",
			"normalTexture":{
				"index":0,
				"scale":1.5
			},
			"pbrMetallicRoughness":{
				"baseColorTexture":{
					"index":1
				},
				"metallicFactor":0,
				"metallicRoughnessTexture":{
					"index":2
				}
			}
		}
	],
	"meshes":[
		{
			"name":"Plane.018",
			"primitives":[
				{
					"attributes":{
						"POSITION":0,
						"NORMAL":1,
						"TEXCOORD_0":2,
						"TEXCOORD_1":3
					},
					"indices":4,
					"material":0
				}
			]
		}
	],
	"textures":[
		{
			"extensions":{
				"EXT_texture_webp":{
					"source":0
				}
			},
			"sampler":0
		},
		{
			"extensions":{
				"EXT_texture_webp":{
					"source":1
				}
			},
			"sampler":0
		},
		{
			"extensions":{
				"EXT_texture_webp":{
					"source":2
				}
			},
			"sampler":0
		}
	],
	"images":[
		{
			"mimeType":"image/webp",
			"name":"Mueble blanco grande 1 Normal Map",
			"uri":"Mueble%20blanco%20grande%201%20Normal%20Map.webp"
		},
		{
			"mimeType":"image/webp",
			"name":"Mueble blanco grande 8k",
			"uri":"Mueble%20blanco%20grande%208k.webp"
		},
		{
			"mimeType":"image/webp",
			"name":"Mueble blanco grande 1 Roughtness",
			"uri":"Mueble%20blanco%20grande%201%20Roughtness.webp"
		}
	],
	"accessors":[
		{
			"bufferView":0,
			"componentType":5126,
			"count":4598,
			"max":[
				378.4880676269531,
				57.36545181274414,
				0.5590589046478271
			],
			"min":[
				145.26344299316406,
				-72.13459777832031,
				-107.2951431274414
			],
			"type":"VEC3"
		},
		{
			"bufferView":1,
			"componentType":5126,
			"count":4598,
			"type":"VEC3"
		},
		{
			"bufferView":2,
			"componentType":5126,
			"count":4598,
			"type":"VEC2"
		},
		{
			"bufferView":3,
			"componentType":5126,
			"count":4598,
			"type":"VEC2"
		},
		{
			"bufferView":4,
			"componentType":5123,
			"count":23904,
			"type":"SCALAR"
		}
	],
	"bufferViews":[
		{
			"buffer":0,
			"byteLength":55176,
			"byteOffset":0,
			"target":34962
		},
		{
			"buffer":0,
			"byteLength":55176,
			"byteOffset":55176,
			"target":34962
		},
		{
			"buffer":0,
			"byteLength":36784,
			"byteOffset":110352,
			"target":34962
		},
		{
			"buffer":0,
			"byteLength":36784,
			"byteOffset":147136,
			"target":34962
		},
		{
			"buffer":0,
			"byteLength":47808,
			"byteOffset":183920,
			"target":34963
		}
	],
	"samplers":[
		{
			"magFilter":9729,
			"minFilter":9987
		}
	],
	"buffers":[
		{
			"byteLength":231728,
			"uri":"mueble_blanco.bin"
		}
	]
}
