{
	"asset":{
		"generator":"Khronos glTF Blender I/O v4.4.56",
		"version":"2.0"
	},
	"extensionsUsed":[
		"KHR_materials_emissive_strength",
		"EXT_texture_webp"
	],
	"extensionsRequired":[
		"EXT_texture_webp"
	],
	"scene":0,
	"scenes":[
		{
			"name":"Scene",
			"nodes":[
				0,
				1
			]
		}
	],
	"nodes":[
		{
			"mesh":0,
			"name":"Roof lobby",
			"scale":[
				0.5,
				0.5,
				0.5
			],
			"translation":[
				-20.134082794189453,
				0.9715570211410522,
				7.573673248291016
			]
		},
		{
			"mesh":1,
			"name":"Structure",
			"scale":[
				0.5,
				0.5,
				0.5
			],
			"translation":[
				-20.134082794189453,
				0.9715570211410522,
				7.573673248291016
			]
		}
	],
	"materials":[
		{
			"doubleSided":true,
			"name":"Material.096",
			"pbrMetallicRoughness":{
				"baseColorTexture":{
					"index":0
				},
				"metallicFactor":0
			}
		},
		{
			"doubleSided":true,
			"name":"Roof",
			"pbrMetallicRoughness":{
				"baseColorTexture":{
					"index":1
				},
				"metallicFactor":0
			}
		},
		{
			"doubleSided":true,
			"emissiveFactor":[
				1,
				0.3971821963787079,
				0.07262510061264038
			],
			"extensions":{
				"KHR_materials_emissive_strength":{
					"emissiveStrength":10.199999809265137
				}
			},
			"name":"Roof ligtf",
			"pbrMetallicRoughness":{
				"baseColorFactor":[
					0.800000011920929,
					0.800000011920929,
					0.800000011920929,
					1
				],
				"metallicFactor":0,
				"roughnessFactor":0.5
			}
		},
		{
			"doubleSided":true,
			"name":"ventanas",
			"pbrMetallicRoughness":{
				"baseColorTexture":{
					"index":2
				},
				"metallicFactor":0,
				"roughnessFactor":0.5
			}
		},
		{
			"doubleSided":true,
			"name":"Floor living room",
			"pbrMetallicRoughness":{
				"baseColorTexture":{
					"index":3
				},
				"metallicFactor":0,
				"roughnessFactor":0.5
			}
		},
		{
			"doubleSided":true,
			"name":"Living room ",
			"pbrMetallicRoughness":{
				"baseColorTexture":{
					"index":4
				},
				"metallicFactor":0,
				"roughnessFactor":0.5
			}
		},
		{
			"doubleSided":true,
			"name":"Wall office",
			"pbrMetallicRoughness":{
				"baseColorTexture":{
					"index":5
				},
				"metallicFactor":0
			}
		},
		{
			"doubleSided":true,
			"name":"Gaming wall oscure",
			"pbrMetallicRoughness":{
				"baseColorTexture":{
					"index":6
				},
				"metallicFactor":0
			}
		},
		{
			"doubleSided":true,
			"name":"Gaming wall light",
			"pbrMetallicRoughness":{
				"baseColorTexture":{
					"index":7
				},
				"metallicFactor":0
			}
		},
		{
			"doubleSided":true,
			"name":"Second living room",
			"pbrMetallicRoughness":{
				"baseColorTexture":{
					"index":8
				},
				"metallicFactor":0,
				"roughnessFactor":0.5
			}
		}
	],
	"meshes":[
		{
			"name":"Cube.029",
			"primitives":[
				{
					"attributes":{
						"POSITION":0,
						"NORMAL":1,
						"TEXCOORD_0":2
					},
					"indices":3,
					"material":0
				},
				{
					"attributes":{
						"POSITION":4,
						"NORMAL":5,
						"TEXCOORD_0":6
					},
					"indices":7,
					"material":1
				},
				{
					"attributes":{
						"POSITION":8,
						"NORMAL":9,
						"TEXCOORD_0":10
					},
					"indices":11,
					"material":2
				}
			]
		},
		{
			"name":"Cube.119",
			"primitives":[
				{
					"attributes":{
						"POSITION":12,
						"NORMAL":13,
						"TEXCOORD_0":14
					},
					"indices":15,
					"material":0
				},
				{
					"attributes":{
						"POSITION":16,
						"NORMAL":17,
						"TEXCOORD_0":18
					},
					"indices":19,
					"material":3
				},
				{
					"attributes":{
						"POSITION":20,
						"NORMAL":21,
						"TEXCOORD_0":22
					},
					"indices":23,
					"material":4
				},
				{
					"attributes":{
						"POSITION":24,
						"NORMAL":25,
						"TEXCOORD_0":26
					},
					"indices":27,
					"material":5
				},
				{
					"attributes":{
						"POSITION":28,
						"NORMAL":29,
						"TEXCOORD_0":30
					},
					"indices":31,
					"material":6
				},
				{
					"attributes":{
						"POSITION":32,
						"NORMAL":33,
						"TEXCOORD_0":34
					},
					"indices":31,
					"material":7
				},
				{
					"attributes":{
						"POSITION":35,
						"NORMAL":36,
						"TEXCOORD_0":37
					},
					"indices":38,
					"material":8
				},
				{
					"attributes":{
						"POSITION":39,
						"NORMAL":40,
						"TEXCOORD_0":41
					},
					"indices":42,
					"material":9
				}
			]
		}
	],
	"textures":[
		{
			"extensions":{
				"EXT_texture_webp":{
					"source":0
				}
			},
			"sampler":0
		},
		{
			"extensions":{
				"EXT_texture_webp":{
					"source":0
				}
			},
			"sampler":0
		},
		{
			"extensions":{
				"EXT_texture_webp":{
					"source":0
				}
			},
			"sampler":0
		},
		{
			"extensions":{
				"EXT_texture_webp":{
					"source":1
				}
			},
			"sampler":0
		},
		{
			"extensions":{
				"EXT_texture_webp":{
					"source":1
				}
			},
			"sampler":0
		},
		{
			"extensions":{
				"EXT_texture_webp":{
					"source":0
				}
			},
			"sampler":0
		},
		{
			"extensions":{
				"EXT_texture_webp":{
					"source":0
				}
			},
			"sampler":0
		},
		{
			"extensions":{
				"EXT_texture_webp":{
					"source":0
				}
			},
			"sampler":0
		},
		{
			"extensions":{
				"EXT_texture_webp":{
					"source":1
				}
			},
			"sampler":0
		}
	],
	"images":[
		{
			"mimeType":"image/webp",
			"name":"structure",
			"uri":"structure.webp"
		},
		{
			"mimeType":"image/webp",
			"name":"Living room structure 2k",
			"uri":"Living%20room%20structure%202k.webp"
		}
	],
	"accessors":[
		{
			"bufferView":0,
			"componentType":5126,
			"count":90,
			"max":[
				67.20256042480469,
				12,
				6.813083648681641
			],
			"min":[
				29.864011764526367,
				11.79296875,
				-32.46697235107422
			],
			"type":"VEC3"
		},
		{
			"bufferView":1,
			"componentType":5126,
			"count":90,
			"type":"VEC3"
		},
		{
			"bufferView":2,
			"componentType":5126,
			"count":90,
			"type":"VEC2"
		},
		{
			"bufferView":3,
			"componentType":5123,
			"count":198,
			"type":"SCALAR"
		},
		{
			"bufferView":4,
			"componentType":5126,
			"count":63,
			"max":[
				67.20256042480469,
				12,
				6.813083648681641
			],
			"min":[
				13.104601860046387,
				11.79296875,
				-32.46697235107422
			],
			"type":"VEC3"
		},
		{
			"bufferView":5,
			"componentType":5126,
			"count":63,
			"type":"VEC3"
		},
		{
			"bufferView":6,
			"componentType":5126,
			"count":63,
			"type":"VEC2"
		},
		{
			"bufferView":7,
			"componentType":5123,
			"count":165,
			"type":"SCALAR"
		},
		{
			"bufferView":8,
			"componentType":5126,
			"count":72,
			"max":[
				67.89997863769531,
				12,
				7.610261917114258
			],
			"min":[
				29.229450225830078,
				12,
				-33.4462890625
			],
			"type":"VEC3"
		},
		{
			"bufferView":9,
			"componentType":5126,
			"count":72,
			"type":"VEC3"
		},
		{
			"bufferView":10,
			"componentType":5126,
			"count":72,
			"type":"VEC2"
		},
		{
			"bufferView":11,
			"componentType":5123,
			"count":204,
			"type":"SCALAR"
		},
		{
			"bufferView":12,
			"componentType":5126,
			"count":176,
			"max":[
				64.33552551269531,
				12,
				8.661836624145508
			],
			"min":[
				23.573570251464844,
				-1,
				-34.45621871948242
			],
			"type":"VEC3"
		},
		{
			"bufferView":13,
			"componentType":5126,
			"count":176,
			"type":"VEC3"
		},
		{
			"bufferView":14,
			"componentType":5126,
			"count":176,
			"type":"VEC2"
		},
		{
			"bufferView":15,
			"componentType":5123,
			"count":414,
			"type":"SCALAR"
		},
		{
			"bufferView":16,
			"componentType":5126,
			"count":40,
			"max":[
				57.12115478515625,
				12,
				8.661836624145508
			],
			"min":[
				34.129886627197266,
				-1,
				-34.45621871948242
			],
			"type":"VEC3"
		},
		{
			"bufferView":17,
			"componentType":5126,
			"count":40,
			"type":"VEC3"
		},
		{
			"bufferView":18,
			"componentType":5126,
			"count":40,
			"type":"VEC2"
		},
		{
			"bufferView":19,
			"componentType":5123,
			"count":60,
			"type":"SCALAR"
		},
		{
			"bufferView":20,
			"componentType":5126,
			"count":57,
			"max":[
				67.89997863769531,
				-1,
				7.610261917114258
			],
			"min":[
				13.104601860046387,
				-1,
				-33.4462890625
			],
			"type":"VEC3"
		},
		{
			"bufferView":21,
			"componentType":5126,
			"count":57,
			"type":"VEC3"
		},
		{
			"bufferView":22,
			"componentType":5126,
			"count":57,
			"type":"VEC2"
		},
		{
			"bufferView":23,
			"componentType":5123,
			"count":153,
			"type":"SCALAR"
		},
		{
			"bufferView":24,
			"componentType":5126,
			"count":174,
			"max":[
				64.23331451416016,
				12,
				8.661836624145508
			],
			"min":[
				13.104601860046387,
				-1,
				-34.45621871948242
			],
			"type":"VEC3"
		},
		{
			"bufferView":25,
			"componentType":5126,
			"count":174,
			"type":"VEC3"
		},
		{
			"bufferView":26,
			"componentType":5126,
			"count":174,
			"type":"VEC2"
		},
		{
			"bufferView":27,
			"componentType":5123,
			"count":360,
			"type":"SCALAR"
		},
		{
			"bufferView":28,
			"componentType":5126,
			"count":4,
			"max":[
				29.24463653564453,
				12,
				-15.90729808807373
			],
			"min":[
				28.69371795654297,
				-1,
				-15.90729808807373
			],
			"type":"VEC3"
		},
		{
			"bufferView":29,
			"componentType":5126,
			"count":4,
			"type":"VEC3"
		},
		{
			"bufferView":30,
			"componentType":5126,
			"count":4,
			"type":"VEC2"
		},
		{
			"bufferView":31,
			"componentType":5123,
			"count":6,
			"type":"SCALAR"
		},
		{
			"bufferView":32,
			"componentType":5126,
			"count":4,
			"max":[
				64.33552551269531,
				12,
				-29.8817081451416
			],
			"min":[
				63.862815856933594,
				-1,
				-29.8817081451416
			],
			"type":"VEC3"
		},
		{
			"bufferView":33,
			"componentType":5126,
			"count":4,
			"type":"VEC3"
		},
		{
			"bufferView":34,
			"componentType":5126,
			"count":4,
			"type":"VEC2"
		},
		{
			"bufferView":35,
			"componentType":5126,
			"count":14,
			"max":[
				64.23331451416016,
				12,
				-12.819053649902344
			],
			"min":[
				63.862815856933594,
				-1,
				-29.8817081451416
			],
			"type":"VEC3"
		},
		{
			"bufferView":36,
			"componentType":5126,
			"count":14,
			"type":"VEC3"
		},
		{
			"bufferView":37,
			"componentType":5126,
			"count":14,
			"type":"VEC2"
		},
		{
			"bufferView":38,
			"componentType":5123,
			"count":24,
			"type":"SCALAR"
		},
		{
			"bufferView":39,
			"componentType":5126,
			"count":18,
			"max":[
				61.71829605102539,
				12,
				7.610261917114258
			],
			"min":[
				29.229450225830078,
				-1,
				7.610261917114258
			],
			"type":"VEC3"
		},
		{
			"bufferView":40,
			"componentType":5126,
			"count":18,
			"type":"VEC3"
		},
		{
			"bufferView":41,
			"componentType":5126,
			"count":18,
			"type":"VEC2"
		},
		{
			"bufferView":42,
			"componentType":5123,
			"count":60,
			"type":"SCALAR"
		}
	],
	"bufferViews":[
		{
			"buffer":0,
			"byteLength":1080,
			"byteOffset":0,
			"target":34962
		},
		{
			"buffer":0,
			"byteLength":1080,
			"byteOffset":1080,
			"target":34962
		},
		{
			"buffer":0,
			"byteLength":720,
			"byteOffset":2160,
			"target":34962
		},
		{
			"buffer":0,
			"byteLength":396,
			"byteOffset":2880,
			"target":34963
		},
		{
			"buffer":0,
			"byteLength":756,
			"byteOffset":3276,
			"target":34962
		},
		{
			"buffer":0,
			"byteLength":756,
			"byteOffset":4032,
			"target":34962
		},
		{
			"buffer":0,
			"byteLength":504,
			"byteOffset":4788,
			"target":34962
		},
		{
			"buffer":0,
			"byteLength":330,
			"byteOffset":5292,
			"target":34963
		},
		{
			"buffer":0,
			"byteLength":864,
			"byteOffset":5624,
			"target":34962
		},
		{
			"buffer":0,
			"byteLength":864,
			"byteOffset":6488,
			"target":34962
		},
		{
			"buffer":0,
			"byteLength":576,
			"byteOffset":7352,
			"target":34962
		},
		{
			"buffer":0,
			"byteLength":408,
			"byteOffset":7928,
			"target":34963
		},
		{
			"buffer":0,
			"byteLength":2112,
			"byteOffset":8336,
			"target":34962
		},
		{
			"buffer":0,
			"byteLength":2112,
			"byteOffset":10448,
			"target":34962
		},
		{
			"buffer":0,
			"byteLength":1408,
			"byteOffset":12560,
			"target":34962
		},
		{
			"buffer":0,
			"byteLength":828,
			"byteOffset":13968,
			"target":34963
		},
		{
			"buffer":0,
			"byteLength":480,
			"byteOffset":14796,
			"target":34962
		},
		{
			"buffer":0,
			"byteLength":480,
			"byteOffset":15276,
			"target":34962
		},
		{
			"buffer":0,
			"byteLength":320,
			"byteOffset":15756,
			"target":34962
		},
		{
			"buffer":0,
			"byteLength":120,
			"byteOffset":16076,
			"target":34963
		},
		{
			"buffer":0,
			"byteLength":684,
			"byteOffset":16196,
			"target":34962
		},
		{
			"buffer":0,
			"byteLength":684,
			"byteOffset":16880,
			"target":34962
		},
		{
			"buffer":0,
			"byteLength":456,
			"byteOffset":17564,
			"target":34962
		},
		{
			"buffer":0,
			"byteLength":306,
			"byteOffset":18020,
			"target":34963
		},
		{
			"buffer":0,
			"byteLength":2088,
			"byteOffset":18328,
			"target":34962
		},
		{
			"buffer":0,
			"byteLength":2088,
			"byteOffset":20416,
			"target":34962
		},
		{
			"buffer":0,
			"byteLength":1392,
			"byteOffset":22504,
			"target":34962
		},
		{
			"buffer":0,
			"byteLength":720,
			"byteOffset":23896,
			"target":34963
		},
		{
			"buffer":0,
			"byteLength":48,
			"byteOffset":24616,
			"target":34962
		},
		{
			"buffer":0,
			"byteLength":48,
			"byteOffset":24664,
			"target":34962
		},
		{
			"buffer":0,
			"byteLength":32,
			"byteOffset":24712,
			"target":34962
		},
		{
			"buffer":0,
			"byteLength":12,
			"byteOffset":24744,
			"target":34963
		},
		{
			"buffer":0,
			"byteLength":48,
			"byteOffset":24756,
			"target":34962
		},
		{
			"buffer":0,
			"byteLength":48,
			"byteOffset":24804,
			"target":34962
		},
		{
			"buffer":0,
			"byteLength":32,
			"byteOffset":24852,
			"target":34962
		},
		{
			"buffer":0,
			"byteLength":168,
			"byteOffset":24884,
			"target":34962
		},
		{
			"buffer":0,
			"byteLength":168,
			"byteOffset":25052,
			"target":34962
		},
		{
			"buffer":0,
			"byteLength":112,
			"byteOffset":25220,
			"target":34962
		},
		{
			"buffer":0,
			"byteLength":48,
			"byteOffset":25332,
			"target":34963
		},
		{
			"buffer":0,
			"byteLength":216,
			"byteOffset":25380,
			"target":34962
		},
		{
			"buffer":0,
			"byteLength":216,
			"byteOffset":25596,
			"target":34962
		},
		{
			"buffer":0,
			"byteLength":144,
			"byteOffset":25812,
			"target":34962
		},
		{
			"buffer":0,
			"byteLength":120,
			"byteOffset":25956,
			"target":34963
		}
	],
	"samplers":[
		{
			"magFilter":9729,
			"minFilter":9987
		}
	],
	"buffers":[
		{
			"byteLength":26076,
			"uri":"living_room_structure.bin"
		}
	]
}
