{
	"asset":{
		"generator":"Khronos glTF Blender I/O v4.4.56",
		"version":"2.0"
	},
	"scene":0,
	"scenes":[
		{
			"name":"Scene",
			"nodes":[
				0
			]
		}
	],
	"nodes":[
		{
			"mesh":0,
			"name":"Adorn India Damian Sofa_SMALL",
			"rotation":[
				0,
				-0.7071068286895752,
				0.7071068286895752,
				1.1520234011186403e-07
			],
			"scale":[
				0.017667973414063454,
				0.017667973414063454,
				0.017667973414063454
			],
			"translation":[
				6.59257698059082,
				0.47155702114105225,
				0.28078269958496094
			]
		}
	],
	"materials":[
		{
			"doubleSided":true,
			"name":"FURNITURE_083_MAT",
			"normalTexture":{
				"index":0,
				"scale":1.5
			},
			"pbrMetallicRoughness":{
				"baseColorTexture":{
					"index":1
				},
				"metallicFactor":0,
				"metallicRoughnessTexture":{
					"index":2
				}
			}
		}
	],
	"meshes":[
		{
			"name":"FURNITURE_083_SMALL",
			"primitives":[
				{
					"attributes":{
						"POSITION":0,
						"NORMAL":1,
						"TEXCOORD_0":2,
						"TEXCOORD_1":3
					},
					"indices":4,
					"material":0
				}
			]
		}
	],
	"textures":[
		{
			"sampler":0,
			"source":0
		},
		{
			"sampler":0,
			"source":1
		},
		{
			"sampler":0,
			"source":2
		}
	],
	"images":[
		{
			"mimeType":"image/png",
			"name":"mueble blanco 2k",
			"uri":"mueble%20blanco%202k.png"
		},
		{
			"mimeType":"image/png",
			"name":"mueble blanco 4k",
			"uri":"mueble%20blanco%204k.png"
		},
		{
			"mimeType":"image/png",
			"name":"Mueble blanco grande 1 Roughtness",
			"uri":"Mueble%20blanco%20grande%201%20Roughtness.png"
		}
	],
	"accessors":[
		{
			"bufferView":0,
			"componentType":5126,
			"count":3562,
			"max":[
				68.61064910888672,
				57.36545181274414,
				0.5590600967407227
			],
			"min":[
				-68.61064147949219,
				-72.13458251953125,
				-107.2951431274414
			],
			"type":"VEC3"
		},
		{
			"bufferView":1,
			"componentType":5126,
			"count":3562,
			"type":"VEC3"
		},
		{
			"bufferView":2,
			"componentType":5126,
			"count":3562,
			"type":"VEC2"
		},
		{
			"bufferView":3,
			"componentType":5126,
			"count":3562,
			"type":"VEC2"
		},
		{
			"bufferView":4,
			"componentType":5123,
			"count":18720,
			"type":"SCALAR"
		}
	],
	"bufferViews":[
		{
			"buffer":0,
			"byteLength":42744,
			"byteOffset":0,
			"target":34962
		},
		{
			"buffer":0,
			"byteLength":42744,
			"byteOffset":42744,
			"target":34962
		},
		{
			"buffer":0,
			"byteLength":28496,
			"byteOffset":85488,
			"target":34962
		},
		{
			"buffer":0,
			"byteLength":28496,
			"byteOffset":113984,
			"target":34962
		},
		{
			"buffer":0,
			"byteLength":37440,
			"byteOffset":142480,
			"target":34963
		}
	],
	"samplers":[
		{
			"magFilter":9729,
			"minFilter":9987
		}
	],
	"buffers":[
		{
			"byteLength":179920,
			"uri":"mueble%20balnco%202.bin"
		}
	]
}
