{
	"asset":{
		"generator":"Khronos glTF Blender I/O v4.4.56",
		"version":"2.0"
	},
	"scene":0,
	"scenes":[
		{
			"name":"Scene",
			"nodes":[
				0
			]
		}
	],
	"nodes":[
		{
			"mesh":0,
			"name":"Cube.028",
			"scale":[
				1.3482962846755981,
				1.6736667156219482,
				1.3482966423034668
			],
			"translation":[
				6.70864200592041,
				0.4876476228237152,
				-4.068877220153809
			]
		}
	],
	"materials":[
		{
			"doubleSided":true,
			"name":"Material.007",
			"normalTexture":{
				"index":0
			},
			"pbrMetallicRoughness":{
				"baseColorTexture":{
					"index":1
				},
				"metallicFactor":0,
				"metallicRoughnessTexture":{
					"index":2
				}
			}
		}
	],
	"meshes":[
		{
			"name":"Cube.030",
			"primitives":[
				{
					"attributes":{
						"POSITION":0,
						"NORMAL":1,
						"TEXCOORD_0":2
					},
					"indices":3,
					"material":0
				}
			]
		}
	],
	"textures":[
		{
			"sampler":0,
			"source":0
		},
		{
			"sampler":0,
			"source":1
		},
		{
			"sampler":0,
			"source":2
		}
	],
	"images":[
		{
			"mimeType":"image/jpeg",
			"name":"vddldbw_1K_Normal",
			"uri":"vddldbw_1K_Normal.jpg"
		},
		{
			"mimeType":"image/png",
			"name":"alfombra 2k",
			"uri":"alfombra%202k.png"
		},
		{
			"mimeType":"image/png",
			"name":"vddldbw_8K_Roughness",
			"uri":"vddldbw_8K_Roughness.png"
		}
	],
	"accessors":[
		{
			"bufferView":0,
			"componentType":5126,
			"count":418,
			"max":[
				2.4826395511627197,
				-0.002144336700439453,
				2.4826388359069824
			],
			"min":[
				-2.4826388359069824,
				-0.012145519256591797,
				-2.4826388359069824
			],
			"type":"VEC3"
		},
		{
			"bufferView":1,
			"componentType":5126,
			"count":418,
			"type":"VEC3"
		},
		{
			"bufferView":2,
			"componentType":5126,
			"count":418,
			"type":"VEC2"
		},
		{
			"bufferView":3,
			"componentType":5123,
			"count":720,
			"type":"SCALAR"
		}
	],
	"bufferViews":[
		{
			"buffer":0,
			"byteLength":5016,
			"byteOffset":0,
			"target":34962
		},
		{
			"buffer":0,
			"byteLength":5016,
			"byteOffset":5016,
			"target":34962
		},
		{
			"buffer":0,
			"byteLength":3344,
			"byteOffset":10032,
			"target":34962
		},
		{
			"buffer":0,
			"byteLength":1440,
			"byteOffset":13376,
			"target":34963
		}
	],
	"samplers":[
		{
			"magFilter":9729,
			"minFilter":9987
		}
	],
	"buffers":[
		{
			"byteLength":14816,
			"uri":"alfombra.bin"
		}
	]
}
