{
	"asset":{
		"generator":"Khronos glTF Blender I/O v4.4.56",
		"version":"2.0"
	},
	"extensionsUsed":[
		"EXT_texture_webp"
	],
	"extensionsRequired":[
		"EXT_texture_webp"
	],
	"scene":0,
	"scenes":[
		{
			"name":"Scene",
			"nodes":[
				0
			]
		}
	],
	"nodes":[
		{
			"mesh":0,
			"name":"guitar.001",
			"rotation":[
				0,
				-0.8353228569030762,
				0.5497596859931946,
				2.0024322111567017e-07
			],
			"scale":[
				0.020460370928049088,
				0.020460370928049088,
				0.020460370928049088
			],
			"translation":[
				2.147007465362549,
				0.5019655823707581,
				3.70556640625
			]
		}
	],
	"materials":[
		{
			"doubleSided":true,
			"name":"Guitar",
			"pbrMetallicRoughness":{
				"baseColorTexture":{
					"index":0
				},
				"metallicFactor":0,
				"roughnessFactor":0.5
			}
		}
	],
	"meshes":[
		{
			"name":"guitar.001",
			"primitives":[
				{
					"attributes":{
						"POSITION":0,
						"NORMAL":1,
						"TEXCOORD_0":2
					},
					"indices":3,
					"material":0
				}
			]
		}
	],
	"textures":[
		{
			"extensions":{
				"EXT_texture_webp":{
					"source":0
				}
			},
			"sampler":0
		}
	],
	"images":[
		{
			"mimeType":"image/webp",
			"name":"Guitar 4k",
			"uri":"Guitar%204k.webp"
		}
	],
	"accessors":[
		{
			"bufferView":0,
			"componentType":5126,
			"count":18079,
			"max":[
				19.66175651550293,
				7.247193336486816,
				-0.1281917840242386
			],
			"min":[
				-19.66175651550293,
				-6.267763137817383,
				-101.61226654052734
			],
			"type":"VEC3"
		},
		{
			"bufferView":1,
			"componentType":5126,
			"count":18079,
			"type":"VEC3"
		},
		{
			"bufferView":2,
			"componentType":5126,
			"count":18079,
			"type":"VEC2"
		},
		{
			"bufferView":3,
			"componentType":5123,
			"count":83496,
			"type":"SCALAR"
		}
	],
	"bufferViews":[
		{
			"buffer":0,
			"byteLength":216948,
			"byteOffset":0,
			"target":34962
		},
		{
			"buffer":0,
			"byteLength":216948,
			"byteOffset":216948,
			"target":34962
		},
		{
			"buffer":0,
			"byteLength":144632,
			"byteOffset":433896,
			"target":34962
		},
		{
			"buffer":0,
			"byteLength":166992,
			"byteOffset":578528,
			"target":34963
		}
	],
	"samplers":[
		{
			"magFilter":9729,
			"minFilter":9987
		}
	],
	"buffers":[
		{
			"byteLength":745520,
			"uri":"guitar.bin"
		}
	]
}
