{
	"asset":{
		"generator":"Khronos glTF Blender I/O v4.4.56",
		"version":"2.0"
	},
	"extensionsUsed":[
		"KHR_materials_specular",
		"EXT_texture_webp"
	],
	"extensionsRequired":[
		"EXT_texture_webp"
	],
	"scene":0,
	"scenes":[
		{
			"name":"Scene",
			"nodes":[
				0
			]
		}
	],
	"nodes":[
		{
			"mesh":0,
			"name":"SM_Wardrobe",
			"rotation":[
				0.70710688829422,
				0,
				0,
				0.7071066498756409
			],
			"scale":[
				0.019339855760335922,
				0.019339855760335922,
				0.019339855760335922
			],
			"translation":[
				10.990819931030273,
				1.3000351190567017,
				-6.260398864746094
			]
		}
	],
	"materials":[
		{
			"doubleSided":true,
			"extensions":{
				"KHR_materials_specular":{
					"specularColorFactor":[
						2.0,
						2.0,
						2.0
					]
				}
			},
			"name":"Wardrobe_03",
			"pbrMetallicRoughness":{
				"baseColorTexture":{
					"index":0
				},
				"metallicFactor":0,
				"roughnessFactor":0.5527864098548889
			}
		},
		{
			"doubleSided":true,
			"extensions":{
				"KHR_materials_specular":{
					"specularColorFactor":[
						2.0,
						2.0,
						2.0
					]
				}
			},
			"name":"Wardrobe_01",
			"pbrMetallicRoughness":{
				"baseColorTexture":{
					"index":1
				},
				"metallicFactor":0,
				"roughnessFactor":0.5527864098548889
			}
		},
		{
			"doubleSided":true,
			"name":"Door",
			"pbrMetallicRoughness":{
				"baseColorTexture":{
					"index":2
				},
				"metallicFactor":0
			}
		}
	],
	"meshes":[
		{
			"name":"Mesh.519",
			"primitives":[
				{
					"attributes":{
						"POSITION":0,
						"NORMAL":1,
						"TEXCOORD_0":2,
						"TEXCOORD_1":3
					},
					"indices":4,
					"material":0
				},
				{
					"attributes":{
						"POSITION":5,
						"NORMAL":6,
						"TEXCOORD_0":7,
						"TEXCOORD_1":8
					},
					"indices":9,
					"material":1
				},
				{
					"attributes":{
						"POSITION":10,
						"NORMAL":11,
						"TEXCOORD_0":12,
						"TEXCOORD_1":13
					},
					"indices":14,
					"material":2
				}
			]
		}
	],
	"textures":[
		{
			"extensions":{
				"EXT_texture_webp":{
					"source":0
				}
			},
			"sampler":0
		},
		{
			"extensions":{
				"EXT_texture_webp":{
					"source":0
				}
			},
			"sampler":0
		},
		{
			"extensions":{
				"EXT_texture_webp":{
					"source":0
				}
			},
			"sampler":0
		}
	],
	"images":[
		{
			"mimeType":"image/webp",
			"name":"estante_negro",
			"uri":"estante_negro.webp"
		}
	],
	"accessors":[
		{
			"bufferView":0,
			"componentType":5126,
			"count":1646,
			"max":[
				25.37958526611328,
				323.5577392578125,
				36.72196960449219
			],
			"min":[
				-24.999996185302734,
				-87.8818130493164,
				-216.72561645507812
			],
			"type":"VEC3"
		},
		{
			"bufferView":1,
			"componentType":5126,
			"count":1646,
			"type":"VEC3"
		},
		{
			"bufferView":2,
			"componentType":5126,
			"count":1646,
			"type":"VEC2"
		},
		{
			"bufferView":3,
			"componentType":5126,
			"count":1646,
			"type":"VEC2"
		},
		{
			"bufferView":4,
			"componentType":5123,
			"count":4236,
			"type":"SCALAR"
		},
		{
			"bufferView":5,
			"componentType":5126,
			"count":15372,
			"max":[
				23.35806655883789,
				320.4254150390625,
				46.721954345703125
			],
			"min":[
				-23.23310089111328,
				-85.51336669921875,
				-214.85330200195312
			],
			"type":"VEC3"
		},
		{
			"bufferView":6,
			"componentType":5126,
			"count":15372,
			"type":"VEC3"
		},
		{
			"bufferView":7,
			"componentType":5126,
			"count":15372,
			"type":"VEC2"
		},
		{
			"bufferView":8,
			"componentType":5126,
			"count":15372,
			"type":"VEC2"
		},
		{
			"bufferView":9,
			"componentType":5123,
			"count":43176,
			"type":"SCALAR"
		},
		{
			"bufferView":10,
			"componentType":5126,
			"count":1180,
			"max":[
				25.000003814697266,
				323.5578308105469,
				32.72193145751953
			],
			"min":[
				-28.62191390991211,
				-87.88175201416016,
				-215.26773071289062
			],
			"type":"VEC3"
		},
		{
			"bufferView":11,
			"componentType":5126,
			"count":1180,
			"type":"VEC3"
		},
		{
			"bufferView":12,
			"componentType":5126,
			"count":1180,
			"type":"VEC2"
		},
		{
			"bufferView":13,
			"componentType":5126,
			"count":1180,
			"type":"VEC2"
		},
		{
			"bufferView":14,
			"componentType":5123,
			"count":3192,
			"type":"SCALAR"
		}
	],
	"bufferViews":[
		{
			"buffer":0,
			"byteLength":19752,
			"byteOffset":0,
			"target":34962
		},
		{
			"buffer":0,
			"byteLength":19752,
			"byteOffset":19752,
			"target":34962
		},
		{
			"buffer":0,
			"byteLength":13168,
			"byteOffset":39504,
			"target":34962
		},
		{
			"buffer":0,
			"byteLength":13168,
			"byteOffset":52672,
			"target":34962
		},
		{
			"buffer":0,
			"byteLength":8472,
			"byteOffset":65840,
			"target":34963
		},
		{
			"buffer":0,
			"byteLength":184464,
			"byteOffset":74312,
			"target":34962
		},
		{
			"buffer":0,
			"byteLength":184464,
			"byteOffset":258776,
			"target":34962
		},
		{
			"buffer":0,
			"byteLength":122976,
			"byteOffset":443240,
			"target":34962
		},
		{
			"buffer":0,
			"byteLength":122976,
			"byteOffset":566216,
			"target":34962
		},
		{
			"buffer":0,
			"byteLength":86352,
			"byteOffset":689192,
			"target":34963
		},
		{
			"buffer":0,
			"byteLength":14160,
			"byteOffset":775544,
			"target":34962
		},
		{
			"buffer":0,
			"byteLength":14160,
			"byteOffset":789704,
			"target":34962
		},
		{
			"buffer":0,
			"byteLength":9440,
			"byteOffset":803864,
			"target":34962
		},
		{
			"buffer":0,
			"byteLength":9440,
			"byteOffset":813304,
			"target":34962
		},
		{
			"buffer":0,
			"byteLength":6384,
			"byteOffset":822744,
			"target":34963
		}
	],
	"samplers":[
		{
			"magFilter":9729,
			"minFilter":9987
		}
	],
	"buffers":[
		{
			"byteLength":829128,
			"uri":"estante_negro.bin"
		}
	]
}
